# xmcd
#
# Track frame offsets:
#   150
#   15745
#   33632
#   50164
#   64450
#   82500
#   99449
#   116891
#   130922
#   151146
#   167468
#   180777
#   195381
#   210303
#   227603
#   244406
#   259787
#   277081
#   291892
#   309934
#   326382
#
# Disc length: 4556 seconds
#
# Revision: 0
# Processed by: cddbd v1.5.1PL0 Copyright (c) Steve Scherf et al.
# Submitted via: Media_Universe 3.0
#
DISCID=1a11ca15
DTITLE=Blake Shelton - The Dreamer and Blake Shelton
DYEAR=1900
DGENRE=Country
TTITLE0=Heavy Liftin
TTITLE1=The Baby
TTITLE2=Asphalt Cowboy
TTITLE3=In My Heaven
TTITLE4=The Dreamer
TTITLE5=My Neck Of The Woods
TTITLE6=Underneath The Same Moon
TTITLE7=Georgia In A Jug
TTITLE8=Playboys Of The Southwestern World
TTITLE9=Someday
TTITLE10=Every Time I Look At You
TTITLE11=All Over Me
TTITLE12=She Doesnt Know She's Got It
TTITLE13=Austin
TTITLE14=Ol' Red
TTITLE15=I Thought There Was Time
TTITLE16=Same Old Song
TTITLE17=Thats What I Call Home
TTITLE18=Problems At Home
TTITLE19=If I Was Your Man
TTITLE20=Some Beach
EXTD=
EXTT0=
EXTT1=
EXTT2=
EXTT3=
EXTT4=
EXTT5=
EXTT6=
EXTT7=
EXTT8=
EXTT9=
EXTT10=
EXTT11=
EXTT12=
EXTT13=
EXTT14=
EXTT15=
EXTT16=
EXTT17=
EXTT18=
EXTT19=
EXTT20=
PLAYORDER=
